<svg xmlns="http://www.w3.org/2000/svg" width="30" height="30" viewBox="0 0 30 30"><defs><style>.a{fill:none;}.b{fill:#08f;}</style></defs><g transform="translate(-282 -452)"><rect class="a" width="30" height="30" transform="translate(282 452)"/><g transform="translate(221 343)"><path class="b" d="M87.014,116.167H83C80.908,113.042,80.25,112,79.449,112H73.688c-.8,0-1.445,1.042-3.548,4.167h-.866v-1.389H67.06v1.389h-.879A2.47,2.47,0,0,0,64,118.832v15.278c0,1.519,1.035,2.891,2.181,2.891H87.014C88.16,137,89,135.628,89,134.109V118.832C89,117.313,88.16,116.167,87.014,116.167Zm.944,17.943c0,.807-.4,1.5-.944,1.5H66.181c-.566,0-1.139-.755-1.139-1.5V118.832a1.221,1.221,0,0,1,1.139-1.276H70.6l.312-.278c.26-.391.5-.868.723-1.2.736-1.1,1.27-1.884,1.647-2.335.306-.365.4-.356.4-.356h5.762s.1-.009.436.391c.4.477.957,1.432,1.732,2.587q.283.43.605.911l.313.278h4.486c.573,0,.944.521.944,1.276v15.278Z" transform="translate(0)"/><path class="b" d="M178,189.5a7.5,7.5,0,1,0,7.5,7.5A7.514,7.514,0,0,0,178,189.5Zm0,13.6a6.1,6.1,0,1,1,6.1-6.1A6.095,6.095,0,0,1,178,203.1Z" transform="translate(-101.431 -71.041)"/><circle class="b" cx="2.5" cy="2.5" r="2.5" transform="translate(74.093 123.613)"/></g></g></svg>