<svg xmlns="http://www.w3.org/2000/svg" width="30" height="30" viewBox="0 0 30 30"><defs><style>.a{fill:none;}.b{fill:#08f;fill-rule:evenodd;}</style></defs><g transform="translate(-272 -501)"><rect class="a" width="30" height="30" transform="translate(272 501)"/><g transform="translate(269 501.566)"><g transform="translate(6 2)"><path class="b" d="M449.756,613.162V610.1c9.69-.3,10.794-5.008,10.794-6.637v-3.443a.852.852,0,0,0-.973-.841.882.882,0,0,0-1,.841v3.365c0,1.682-1.178,5.481-9.8,5.481s-9.808-3.8-9.808-5.481v-3.568s0-.638-.986-.638-.981.638-.981.638v3.646c0,1.629,1.1,6.34,10.794,6.637v3.067h-7.065v1.272h15.7v-1.272ZM448.775,589c-5.887,0-5.887,3.306-5.887,3.306v9.919s0,3.306,5.887,3.306,5.887-3.306,5.887-3.306v-9.919S454.662,589,448.775,589Zm0,1.272c-3.925,0-3.925,1.749-3.925,1.749v10.491s0,1.749,3.925,1.749,3.925-1.749,3.925-1.749V592.02S452.7,590.272,448.775,590.272Z" transform="translate(-437 -589)"/></g></g></g></svg>