<svg xmlns="http://www.w3.org/2000/svg" width="30" height="30" viewBox="0 0 30 30"><defs><style>.a{fill:none;}.b{fill:#fff;}</style></defs><g transform="translate(-330 -77)"><rect class="a" width="30" height="30" transform="translate(330 77)"/><g transform="translate(327.311 74.094)"><path class="b" d="M24.755,21.4l-2.3-1.606a1.773,1.773,0,0,0-2.471.439l-.534.765a19.768,19.768,0,0,1-2.844-2.389,19.742,19.742,0,0,1-2.388-2.844l.764-.534a1.772,1.772,0,0,0,.439-2.471l-1.606-2.3a1.776,1.776,0,0,0-1.45-.767,1.664,1.664,0,0,0-.578.1,3.183,3.183,0,0,0-.6.294l-.317.224a2.407,2.407,0,0,0-.224.2,3.188,3.188,0,0,0-.817,1.456c-.662,2.48.978,6.231,4.079,9.333,2.6,2.6,5.733,4.222,8.165,4.223h0a4.53,4.53,0,0,0,1.167-.144,3.188,3.188,0,0,0,1.457-.817,2.413,2.413,0,0,0,.21-.237l.224-.319a3.2,3.2,0,0,0,.283-.582A1.746,1.746,0,0,0,24.755,21.4Z"/></g></g></svg>